HIERARCHY
ROOT hip
{
	OFFSET 0.000000 0.000000 0.000000 
	CHANNELS 6 Xposition Yposition Zposition Xrotation Zrotation Yrotation
	JOINT abdomen
	{
		OFFSET 0.000000 3.402643 0.000000 
		CHANNELS 3 Xrotation Zrotation Yrotation
		JOINT chest
		{
			OFFSET 0.000000 8.438565 -0.680529 
			CHANNELS 3 Xrotation Zrotation Yrotation
			JOINT neck
			{
				OFFSET 0.000000 10.207942 -0.272212 
				CHANNELS 3 Xrotation Zrotation Yrotation
				JOINT head
				{
					OFFSET 0.000000 3.130431 0.000000 
					CHANNELS 3 Xrotation Zrotation Yrotation
					End Site
					{
						OFFSET 0.000000 3.130435 0.000000 
					}
				}
			}
			JOINT lCollar
			{
				OFFSET 3.470700 6.669187 -0.816635 
				CHANNELS 3 Yrotation Zrotation Xrotation
				JOINT lShldr
				{
					OFFSET 3.198488 0.000000 0.000000 
					CHANNELS 3 Zrotation Yrotation Xrotation
					JOINT lForeArm
					{
						OFFSET 10.139888 0.000000 0.000000 
						CHANNELS 3 Yrotation Zrotation Xrotation
						JOINT lHand
						{
							OFFSET 8.370511 0.000000 0.000000 
							CHANNELS 3 Zrotation Yrotation Xrotation
							End Site
							{
								OFFSET 4.083176 0.000000 0.000000 
							}
						}
					}
				}
			}
			JOINT rCollar
			{
				OFFSET -3.470700 6.669187 -0.816635 
				CHANNELS 3 Yrotation Zrotation Xrotation
				JOINT rShldr
				{
					OFFSET -3.198488 0.000000 0.000000 
					CHANNELS 3 Zrotation Yrotation Xrotation
					JOINT rForeArm
					{
						OFFSET -10.139888 0.000000 0.000000 
						CHANNELS 3 Yrotation Zrotation Xrotation
						JOINT rHand
						{
							OFFSET -8.370511 0.000000 0.000000 
							CHANNELS 3 Zrotation Yrotation Xrotation
							End Site
							{
								OFFSET -4.083176 0.000000 0.000000 
							}
						}
					}
				}
			}
		}
	}
	JOINT lThigh
	{
		OFFSET 5.308129 -1.633274 1.361059 
		CHANNELS 3 Xrotation Zrotation Yrotation
		JOINT lShin
		{
			OFFSET -2.041588 -20.007561 0.000000 
			CHANNELS 3 Xrotation Zrotation Yrotation
			JOINT lFoot
			{
				OFFSET 0.000000 -19.190928 -1.224953 
				CHANNELS 3 Xrotation Yrotation Zrotation
				End Site
				{
					OFFSET 0.000000 -2.449906 4.627600 
				}
			}
		}
	}
	JOINT rThigh
	{
		OFFSET -5.308129 -1.633274 1.361059 
		CHANNELS 3 Xrotation Zrotation Yrotation
		JOINT rShin
		{
			OFFSET 2.041588 -20.007561 0.000000 
			CHANNELS 3 Xrotation Zrotation Yrotation
			JOINT rFoot
			{
				OFFSET 0.000000 -19.190928 -1.224953 
				CHANNELS 3 Xrotation Yrotation Zrotation
				End Site
				{
					OFFSET 0.000000 -2.449906 4.627600 
				}
			}
		}
	}
}
MOTION
Frames: 20
Frame Time: 0.033333
-4.252596 34.341946 -1.684410 -1.923828 -0.205078 87.353516 30.660566 -9.698592 -4.665598 -36.279297 16.855469 -0.966797 -8.603516 0.000000 0.000000 9.541017 0.683594 -0.175665 2.000000 -2.000000 0.000000 -0.791014 1.796871 -96.210648 -12.839139 -1.795856 0.002362 1.756760 -3.283567 0.058713 -2.000000 2.000000 0.000000 -3.427734 -3.378906 -93.945313 18.855324 1.758017 -0.019743 -1.786088 3.264010 0.057537 7.817801 16.733738 18.655869 -2.411582 -4.139162 0.047994 -0.955802 -0.034837 -0.044976 12.161441 -9.322946 -19.885382 -4.303746 4.125891 -0.217207 7.958897 -0.031065 -0.019551 
-4.135731 34.307030 -1.887268 -1.816406 -0.302734 87.529243 30.660566 -9.698592 -4.665598 -36.728516 16.689455 -0.937500 -8.603516 0.000000 0.000000 9.785157 0.507813 -0.019445 2.000000 -2.000000 0.000000 -1.416016 1.416016 -96.484131 -11.979520 -1.795278 0.012107 1.756760 -3.283567 0.058713 -2.000000 2.000000 0.000000 -2.783203 -3.691406 -94.404930 18.074038 1.777514 -0.018589 -1.786088 3.264010 0.057537 7.919336 16.425751 18.589067 -2.717395 -4.144947 0.081172 -0.956838 -0.017983 -0.006990 12.141042 -9.517779 -20.159031 -4.167282 4.125974 -0.207070 7.910058 -0.033789 -0.020390 
-4.034057 34.272869 -2.128422 -1.630859 -0.380859 87.587822 30.660566 -9.698592 -4.665598 -37.031250 16.523436 -0.683594 -8.603516 0.000000 0.000000 9.990235 0.117188 0.097676 2.000000 -2.000000 0.000000 -2.568359 0.966797 -96.826172 -10.846707 -1.795278 0.012107 1.756760 -3.283567 0.058713 -2.000000 2.000000 0.000000 -1.630859 -4.150391 -94.942116 16.862856 1.776936 -0.008844 -1.786088 3.264010 0.057537 7.983824 16.021372 18.565742 -2.814342 -4.163436 0.069680 -0.986260 -0.000150 -0.031495 12.114114 -9.831361 -20.304800 -4.070621 4.126925 -0.180343 7.890598 -0.019285 -0.005832 
-3.970562 34.248791 -2.371630 -1.367188 -0.380859 87.470703 30.660566 -9.698592 -4.665598 -37.099613 16.298830 -0.214843 -8.603516 0.000000 0.000000 10.087891 -0.361328 0.146484 2.000000 -2.000000 0.000000 -4.375000 0.585938 -96.972557 -9.880155 -1.795856 0.002362 1.756760 -3.283567 0.058713 -2.000000 2.000000 0.000000 0.068359 -4.550783 -95.596474 15.339174 1.776359 0.000902 -1.786088 3.264010 0.057537 8.065381 15.556833 18.662096 -2.711918 -4.148949 0.070858 -1.151834 -0.014369 -0.058037 12.147683 -10.224793 -20.277941 -4.047755 4.134617 -0.198831 7.900346 -0.018342 -0.025901 
-3.942970 34.238079 -2.593574 -1.083984 -0.253906 87.246094 30.660566 -9.698592 -4.665598 -36.914063 16.005859 0.354256 -8.603516 0.000000 0.000000 10.039063 -0.722656 0.205078 2.000000 -2.000000 0.000000 -6.787109 0.351563 -96.708984 -9.577437 -1.786107 0.001783 1.756760 -3.283567 0.058713 -2.000000 2.000000 0.000000 2.167969 -4.736328 -96.435547 13.718326 1.776936 -0.008844 -1.786088 3.264010 0.057537 8.218704 15.055617 18.808558 -2.540221 -4.130934 0.048024 -1.367148 0.001140 -0.031028 12.220838 -10.690270 -20.128002 -4.111001 4.128171 -0.183310 7.949138 -0.033760 -0.010191 
-3.933012 34.236439 -2.787169 -0.800781 -0.048828 87.021484 30.660566 -9.698592 -4.665598 -36.601566 15.673829 0.791015 -8.603516 0.000000 0.000000 9.941406 -0.908203 0.292969 2.000000 -2.000000 0.000000 -9.580078 0.273438 -96.103470 -10.036161 -1.795278 0.012107 1.756760 -3.283567 0.058713 -2.000000 2.000000 0.000000 4.345703 -4.658203 -97.334778 12.184878 1.776359 0.000902 -1.786088 3.264010 0.057537 8.432388 14.634253 18.860281 -2.384626 -4.143468 0.046696 -1.659649 -0.034844 -0.024294 12.399492 -11.082751 -19.958324 -4.264585 4.124311 -0.214221 7.997859 -0.051625 -0.015560 
-3.925424 34.237576 -2.953496 -0.546875 0.117188 86.923828 30.660566 -9.698592 -4.665598 -36.376957 15.332033 1.035157 -8.603516 0.000000 0.000000 9.882813 -0.976563 0.380859 2.000000 -2.000000 0.000000 -12.304688 0.234375 -95.351517 -10.983426 -1.795278 0.012107 1.756760 -3.283567 0.058713 -2.000000 2.000000 0.000000 6.250000 -4.375000 -98.037849 10.915102 1.775781 0.010647 -1.786088 3.264010 0.057537 8.602463 14.267038 18.746037 -2.227440 -4.141429 0.035021 -2.030471 -0.049056 -0.030116 12.603726 -11.472763 -19.930208 -4.440404 4.124549 -0.207739 8.037004 -0.038700 -0.011650 
-3.918263 34.238834 -3.093529 -0.302734 0.244141 86.904335 30.660566 -9.698592 -4.665598 -36.298832 15.048829 1.123048 -8.603516 0.000000 0.000000 9.892578 -1.113281 0.429689 2.000000 -2.000000 0.000000 -14.511719 0.146484 -94.697243 -11.921170 -1.795856 0.002362 1.756760 -3.283567 0.058713 -2.000000 2.000000 0.000000 7.548828 -4.052734 -98.291016 10.065738 1.776359 0.000902 -1.786088 3.264010 0.057537 8.655309 13.929581 18.441032 -2.064503 -4.137398 0.032328 -2.440515 -0.051034 -0.052192 12.782022 -11.777330 -19.945396 -4.605083 4.133124 -0.210785 8.075979 -0.049864 -0.025165 
-3.917948 34.241608 -3.206273 -0.068359 0.292969 86.894531 30.660566 -9.698592 -4.665598 -36.289063 14.833984 1.213438 -8.603516 0.000000 0.000000 9.912109 -1.367188 0.312267 2.000000 -2.000000 0.000000 -15.869141 -0.019531 -94.335945 -12.458035 -1.795278 0.012107 1.756760 -3.283567 0.058713 -2.000000 2.000000 0.000000 8.056641 -3.847656 -98.086594 9.655337 1.775781 0.010647 -1.786088 3.264010 0.057537 8.618860 13.590440 18.108839 -1.868347 -4.154947 0.008683 -2.792933 0.002073 -0.041323 12.888228 -12.050203 -20.032248 -4.720171 4.121611 -0.209035 8.056396 -0.059231 -0.017819 
-3.927843 34.248287 -3.290678 0.195313 0.341797 86.904358 30.660566 -9.698592 -4.665598 -36.230473 14.658204 1.376954 -8.603516 0.000000 0.000000 9.863281 -1.689453 0.009478 2.000000 -2.000000 0.000000 -16.240234 -0.205078 -94.414070 -12.565455 -1.795278 0.012107 1.756760 -3.283567 0.058713 -2.000000 2.000000 0.000000 7.861328 -3.769531 -97.588531 9.772769 1.776359 0.000902 -1.786088 3.264010 0.057537 8.582891 13.251342 17.945719 -1.761438 -4.136691 0.029384 -2.958416 -0.043490 -0.049430 12.912665 -12.301154 -20.131861 -4.792833 4.125463 -0.243650 8.105397 -0.028246 -0.018656 
-3.942100 34.257111 -3.346823 0.429688 0.371094 86.855469 30.660566 -9.698592 -4.665598 -36.093754 14.472657 1.611328 -8.603516 0.000000 0.000000 9.658203 -1.962891 -0.420256 2.000000 -2.000000 0.000000 -15.703124 -0.380859 -94.834045 -12.379927 -1.785529 0.011529 1.756760 -3.283567 0.058713 -2.000000 2.000000 0.000000 7.197265 -3.876953 -96.992188 10.446596 1.776359 0.000902 -1.786088 3.264010 0.057537 8.562498 12.928282 17.935722 -1.700440 -4.140984 0.025177 -2.987984 -0.032133 -0.034249 12.926564 -12.517822 -20.272871 -4.831610 4.125254 -0.246537 8.154291 0.014314 -0.016046 
-3.949776 34.263287 -3.374630 0.605469 0.400391 86.875069 30.660566 -9.698592 -4.665598 -35.937500 14.257813 1.894531 -8.603516 0.000000 0.000000 9.492188 -2.001953 -0.918310 2.000000 -2.000000 0.000000 -14.580079 -0.439453 -95.283211 -12.194364 -1.795278 0.012107 1.756760 -3.283567 0.058713 -2.000000 2.000000 0.000000 6.416016 -4.082031 -96.425781 11.608706 1.776359 0.000902 -1.786088 3.264010 0.057537 8.577971 12.690424 18.050226 -1.761695 -4.137248 0.009876 -2.919352 -0.039650 -0.058386 12.931473 -12.651857 -20.389145 -4.858846 4.123395 -0.248594 8.232421 -0.002771 -0.000829 
-3.943915 34.261524 -3.372437 0.683594 0.371094 86.953186 30.660566 -9.698592 -4.665598 -35.908207 14.013672 2.089844 -8.603516 0.000000 0.000000 9.550780 -1.816406 -1.425781 2.000000 -2.000000 0.000000 -13.281251 -0.351563 -95.351563 -12.252956 -1.795278 0.012107 1.756760 -3.283567 0.058713 -2.000000 2.000000 0.000000 5.722657 -4.316406 -95.967529 13.044253 1.776359 0.000902 -1.786088 3.264010 0.057537 8.579982 12.652676 18.103832 -1.839396 -4.146463 0.006218 -2.831558 -0.037588 -0.046954 12.973392 -12.712435 -20.561811 -4.909611 4.125076 -0.232788 8.290976 -0.024341 -0.007269 
-3.926810 34.250179 -3.338087 0.634766 0.273438 87.148483 30.660566 -9.698592 -4.665598 -36.064453 13.828125 2.197266 -8.603516 0.000000 0.000000 9.941406 -1.582031 -1.894531 2.000000 -2.000000 0.000000 -12.226563 -0.146484 -94.804688 -12.663114 -1.795278 0.012107 1.756760 -3.283567 0.058713 -2.000000 2.000000 0.000000 5.136719 -4.453125 -95.703880 14.372623 1.776936 -0.008843 -1.786088 3.264010 0.057537 8.499187 12.816215 17.946068 -1.875791 -4.140198 0.028425 -2.811603 -0.052128 -0.063412 12.997347 -12.646520 -20.708973 -4.888174 4.135361 -0.231957 8.232149 -0.066277 -0.009662 
-3.906754 34.231903 -3.272287 0.478516 0.136719 87.451202 30.660566 -9.698592 -4.665598 -36.396488 13.759766 2.187501 -8.603516 0.000000 0.000000 10.664063 -1.455078 -2.314701 2.000000 -2.000000 0.000000 -11.582031 0.039063 -93.857414 -13.288376 -1.786107 0.001783 1.756760 -3.283567 0.058713 -2.000000 2.000000 0.000000 4.628906 -4.394531 -95.742935 15.280826 1.776936 -0.008844 -1.786088 3.264010 0.057537 8.323595 13.167904 17.631796 -1.867894 -4.144444 0.008322 -2.792635 -0.040349 -0.016434 12.974147 -12.487942 -20.926632 -4.831676 4.125177 -0.246533 8.163882 -0.044805 -0.033772 
-3.890065 34.212486 -3.181402 0.273438 0.039063 87.841797 30.660566 -9.698592 -4.665598 -36.748047 13.798829 2.150768 -8.603516 0.000000 0.000000 11.523438 -1.503906 -2.705335 2.000000 -2.000000 0.000000 -11.376953 0.039063 -93.037102 -13.776639 -1.795856 0.002362 1.756760 -3.283567 0.058713 -2.000000 2.000000 0.000000 4.218750 -4.111277 -95.967567 15.651675 1.776359 0.000902 -1.786088 3.264010 0.057537 8.110813 13.609989 17.079044 -1.847864 -4.152026 0.046186 -2.792767 -0.027681 -0.021816 12.952682 -12.233565 -21.195414 -4.715104 4.125604 -0.237860 8.085922 -0.015333 -0.004609 
-3.876363 34.197491 -3.077092 0.058594 -0.019531 88.320313 30.660566 -9.698592 -4.665598 -37.021488 13.847656 2.119141 -8.603516 0.000000 0.000000 12.363282 -1.611328 -3.047150 2.000000 -2.000000 0.000000 -11.455077 -0.195313 -92.890663 -13.893845 -1.786107 0.001783 1.756760 -3.283567 0.058713 -2.000000 2.000000 0.000000 4.033203 -3.750000 -96.162109 15.622623 1.776936 -0.008844 -1.786088 3.264010 0.057537 7.943258 14.046846 16.497477 -1.867661 -4.144549 0.008325 -2.792966 0.003663 0.001492 12.962192 -11.920341 -21.553631 -4.519716 4.126700 -0.184358 8.027243 -0.037759 -0.011370 
-3.860744 34.189796 -2.973060 -0.126953 0.058594 88.750000 30.660566 -9.698592 -4.665598 -37.148438 13.847656 2.187501 -8.603516 0.000000 0.000000 13.115234 -1.533203 -3.427996 2.000000 -2.000000 0.000000 -11.689452 -0.625000 -93.476669 -13.571559 -1.795856 0.002362 1.756760 -3.283567 0.058713 -2.000000 2.000000 0.000000 4.218750 -3.378864 -96.172523 15.300358 1.776936 -0.008844 -1.786088 3.264010 0.057537 7.908092 14.363171 15.954485 -1.943816 -4.141130 0.033526 -2.792781 -0.015751 -0.048583 13.068061 -11.597536 -21.914425 -4.304513 4.126222 -0.197692 7.958964 0.016422 0.004956 
-3.839491 34.189419 -2.881167 -0.253906 0.244141 89.140625 30.660566 -9.698592 -4.665598 -37.158207 13.710938 2.392579 -8.603516 0.000000 0.000000 13.789063 -1.162109 -3.857620 2.000000 -2.000000 0.000000 -12.158203 -1.083984 -94.345886 -13.073514 -1.795856 0.002362 1.756760 -3.283567 0.058713 -2.000000 2.000000 0.000000 4.804688 -3.056641 -96.104034 14.772769 1.776359 0.000902 -1.786088 3.264010 0.057537 8.052312 14.566408 15.616580 -2.060020 -4.139626 0.031696 -2.792219 -0.053344 -0.042811 13.274225 -11.315207 -22.166985 -4.100130 4.125206 -0.182425 7.910105 -0.026586 -0.008036 
-3.813500 34.193077 -2.808270 -0.361328 0.556641 89.355469 30.660566 -9.698592 -4.665598 -37.089844 13.505859 2.697594 -8.603516 0.000000 0.000000 14.423828 -0.537109 -4.287117 2.000000 -2.000000 0.000000 -12.919922 -1.376953 -94.834236 -12.712186 -1.795856 0.002362 1.756760 -3.283567 0.058713 -2.000000 2.000000 0.000000 5.664063 -2.753906 -96.220703 14.030827 1.776936 -0.008844 -1.786088 3.264010 0.057537 8.362959 14.652184 15.421949 -2.160304 -4.154784 0.030445 -2.802319 -0.034350 -0.045621 13.585551 -11.119813 -22.320894 -3.905606 4.135771 -0.188026 7.792939 -0.018403 -0.015764 
